<?xml version="1.0"?>
<svg xmlns="http://www.w3.org/2000/svg" viewBox="0 0 64 64" width="30px" height="30px"><g id="virus-covid19-corona-coronavirus-cell"><path d="M32,18a4,4,0,0,0,0,8,1,1,0,0,0,0-2,2,2,0,1,1,1.885-1.329,1,1,0,0,0,1.885.67A4,4,0,0,0,32,18Z"/><path d="M54.81,34.42a4,4,0,1,0,0-4.84L51.8,29.4a19.044,19.044,0,0,0-1.35-5.05l2.52-1.66a4,4,0,1,0-2.42-4.2l-2.7,1.36a19.071,19.071,0,0,0-3.7-3.7l1.36-2.7a4,4,0,1,0-4.2-2.42l-1.66,2.52A19.044,19.044,0,0,0,34.6,12.2l-.18-3.01a4,4,0,1,0-4.84,0L29.4,12.2a19.044,19.044,0,0,0-5.05,1.35l-1.66-2.52a4,4,0,1,0-4.2,2.42l1.36,2.7a19.071,19.071,0,0,0-3.7,3.7l-2.7-1.36a4,4,0,1,0-2.42,4.2l2.52,1.66A19.044,19.044,0,0,0,12.2,29.4l-3.01.18a4,4,0,1,0,0,4.84l3.01.18a19.044,19.044,0,0,0,1.35,5.05l-2.52,1.66A4,4,0,1,0,9.49,49a3.871,3.871,0,0,0,1.99-.54,3.962,3.962,0,0,0,1.97-2.95l2.7-1.36a19.071,19.071,0,0,0,3.7,3.7l-1.36,2.7a4,4,0,1,0,4.2,2.42l1.66-2.52A19.044,19.044,0,0,0,29.4,51.8l.18,3.01a4,4,0,1,0,4.84,0l.18-3.01a19.044,19.044,0,0,0,5.05-1.35l1.66,2.52a4,4,0,1,0,4.2-2.42l-1.36-2.7a19.071,19.071,0,0,0,3.7-3.7l2.7,1.36a3.962,3.962,0,0,0,1.97,2.95,3.9,3.9,0,0,0,1.99.54,4,4,0,1,0-1.54-7.69l-2.52-1.66A19.044,19.044,0,0,0,51.8,34.6Zm-5.84.35.8-.05a16.76,16.76,0,0,1-1.02,3.81l-.67-.44a1,1,0,0,0-1.39.28,1.013,1.013,0,0,0,.29,1.39l5.38,3.54a1,1,0,0,0,1.09.01,1.977,1.977,0,0,1,2.07-.04A2,2,0,0,1,56.25,46a1.972,1.972,0,0,1-1.22.93,2,2,0,0,1-2.51-2.01,1.016,1.016,0,0,0-.55-.94l-5.76-2.89a1,1,0,0,0-.9,1.79l.72.36a17.529,17.529,0,0,1-2.79,2.79l-.36-.72a1,1,0,0,0-1.79.9l2.89,5.76a1.024,1.024,0,0,0,.94.55A2,2,0,0,1,46,56.25a2,2,0,0,1-2.73-.73,1.977,1.977,0,0,1,.04-2.07,1,1,0,0,0-.01-1.09l-3.54-5.38a1.013,1.013,0,0,0-1.39-.29,1,1,0,0,0-.28,1.39l.44.67a16.76,16.76,0,0,1-3.81,1.02l.05-.8a1,1,0,0,0-.94-1.06.992.992,0,0,0-1.06.94l-.38,6.43a1.025,1.025,0,0,0,.54.95A1.981,1.981,0,0,1,34,58a2,2,0,0,1-4,0,1.981,1.981,0,0,1,1.07-1.77,1.025,1.025,0,0,0,.54-.95l-.38-6.43a1,1,0,1,0-2,.12l.05.8a16.76,16.76,0,0,1-3.81-1.02l.44-.67a1,1,0,0,0-.28-1.39,1.013,1.013,0,0,0-1.39.29L20.7,52.36a1,1,0,0,0-.01,1.09,1.977,1.977,0,0,1,.04,2.07,2,2,0,0,1-2.73.73,1.972,1.972,0,0,1-.93-1.22,2,2,0,0,1,2.01-2.51,1.024,1.024,0,0,0,.94-.55l2.89-5.76a1,1,0,0,0-1.79-.9l-.36.72a17.529,17.529,0,0,1-2.79-2.79l.72-.36a1,1,0,0,0-.9-1.79l-5.76,2.89a1.016,1.016,0,0,0-.55.94A2,2,0,0,1,7.75,46a2,2,0,0,1,.73-2.73,1.977,1.977,0,0,1,2.07.04,1,1,0,0,0,1.09-.01l5.38-3.54a1.013,1.013,0,0,0,.29-1.39,1,1,0,0,0-1.39-.28l-.67.44a16.76,16.76,0,0,1-1.02-3.81l.8.05a1,1,0,0,0,.12-2l-6.43-.38a1.008,1.008,0,0,0-.95.54A1.981,1.981,0,0,1,6,34a2,2,0,0,1,0-4,1.981,1.981,0,0,1,1.77,1.07,1.025,1.025,0,0,0,.95.54l6.43-.38a1,1,0,1,0-.12-2l-.8.05a16.76,16.76,0,0,1,1.02-3.81l.67.44a1.016,1.016,0,0,0,.55.17,1.027,1.027,0,0,0,.84-.45,1.013,1.013,0,0,0-.29-1.39L11.64,20.7a1,1,0,0,0-1.09-.01,1.977,1.977,0,0,1-2.07.04A2,2,0,0,1,7.75,18a1.972,1.972,0,0,1,1.22-.93,2,2,0,0,1,2.51,2.01,1.016,1.016,0,0,0,.55.94l5.76,2.89a1,1,0,0,0,.9-1.79l-.72-.36a17.529,17.529,0,0,1,2.79-2.79l.36.72a.992.992,0,0,0,.89.55.908.908,0,0,0,.45-.11,1,1,0,0,0,.45-1.34l-2.89-5.76a.989.989,0,0,0-.94-.55A2,2,0,0,1,18,7.75a2.006,2.006,0,0,1,2.73.73,1.977,1.977,0,0,1-.04,2.07,1,1,0,0,0,.01,1.09l3.54,5.38a1.013,1.013,0,0,0,1.39.29,1,1,0,0,0,.28-1.39l-.44-.67a16.76,16.76,0,0,1,3.81-1.02l-.05.8a1,1,0,0,0,2,.12l.38-6.43a1.025,1.025,0,0,0-.54-.95A1.981,1.981,0,0,1,30,6a2,2,0,0,1,4,0,1.981,1.981,0,0,1-1.07,1.77,1.025,1.025,0,0,0-.54.95l.38,6.43a1,1,0,0,0,1,.94h.06a1,1,0,0,0,.94-1.06l-.05-.8a16.76,16.76,0,0,1,3.81,1.02l-.44.67a1,1,0,0,0,.28,1.39,1.013,1.013,0,0,0,1.39-.29l3.54-5.38a1,1,0,0,0,.01-1.09,1.977,1.977,0,0,1-.04-2.07A2,2,0,0,1,46,7.75a1.972,1.972,0,0,1,.93,1.22,2,2,0,0,1-2.01,2.51.989.989,0,0,0-.94.55l-2.89,5.76a1,1,0,0,0,.45,1.34.908.908,0,0,0,.45.11.992.992,0,0,0,.89-.55l.36-.72a17.529,17.529,0,0,1,2.79,2.79l-.72.36a1,1,0,0,0,.9,1.79l5.76-2.89a1.016,1.016,0,0,0,.55-.94A2,2,0,0,1,56.25,18a2,2,0,0,1-.73,2.73,1.977,1.977,0,0,1-2.07-.04,1,1,0,0,0-1.09.01l-5.38,3.54a1.013,1.013,0,0,0-.29,1.39,1.027,1.027,0,0,0,.84.45,1.016,1.016,0,0,0,.55-.17l.67-.44a16.76,16.76,0,0,1,1.02,3.81l-.8-.05a1,1,0,0,0-.12,2l6.43.38a1.008,1.008,0,0,0,.95-.54A1.981,1.981,0,0,1,58,30a2,2,0,0,1,0,4,1.981,1.981,0,0,1-1.77-1.07,1.008,1.008,0,0,0-.95-.54l-6.43.38a1,1,0,1,0,.12,2Z"/><path d="M26.486,35.044a1,1,0,0,0-.6,1.279A2,2,0,1,1,24,35a1,1,0,0,0,0-2,3.994,3.994,0,1,0,3.766,2.647A1,1,0,0,0,26.486,35.044Z"/><path d="M41,33a4,4,0,0,0-3.747,5.4,1,1,0,1,0,1.873-.7A1.981,1.981,0,0,1,39,37a2,2,0,1,1,2,2,1,1,0,0,0,0,2,4,4,0,0,0,0-8Z"/><path d="M23,30a3,3,0,1,0-3-3A3,3,0,0,0,23,30Zm0-4a1,1,0,1,1-1,1A1,1,0,0,1,23,26Z"/><path d="M33,40a3,3,0,1,0,3,3A3,3,0,0,0,33,40Zm0,4a1,1,0,1,1,1-1A1,1,0,0,1,33,44Z"/><path d="M41,29a3,3,0,1,0-3-3A3,3,0,0,0,41,29Zm0-4a1,1,0,1,1-1,1A1,1,0,0,1,41,25Z"/><path d="M35,32a3,3,0,1,0-3,3A3,3,0,0,0,35,32Zm-4,0a1,1,0,1,1,1,1A1,1,0,0,1,31,32Z"/></g></svg>
